<svg viewBox="0 0 80 80" fill="none" xmlns="http://www.w3.org/2000/svg">
  <!-- Light background variant -->
  <!-- Outer monitoring pulse ring -->
  <circle cx="40" cy="40" r="38" stroke="rgba(22,101,52,0.12)" stroke-width="1" fill="none" />
  <circle cx="40" cy="40" r="32" stroke="rgba(22,101,52,0.07)" stroke-width="0.75" fill="none" stroke-dasharray="4 3" />

  <!-- Connection lines forming the N shape -->
  <line x1="20" y1="62" x2="20" y2="18" stroke="rgba(22,101,52,0.4)" stroke-width="2" />
  <line x1="20" y1="18" x2="60" y2="62" stroke="rgba(146,116,78,0.45)" stroke-width="2" />
  <line x1="60" y1="62" x2="60" y2="18" stroke="rgba(22,101,52,0.4)" stroke-width="2" />

  <!-- Secondary discovery links -->
  <line x1="20" y1="40" x2="60" y2="18" stroke="rgba(22,101,52,0.1)" stroke-width="1" />
  <line x1="20" y1="62" x2="60" y2="40" stroke="rgba(22,101,52,0.1)" stroke-width="1" />
  <line x1="40" y1="30" x2="60" y2="40" stroke="rgba(100,116,80,0.12)" stroke-width="0.75" />

  <!-- Primary nodes (N vertices) -->
  <circle cx="20" cy="62" r="5.5" fill="#f5f5f0" stroke="#16a34a" stroke-width="1.5" />
  <circle cx="20" cy="62" r="2.5" fill="#16a34a" />
  <circle cx="20" cy="18" r="5.5" fill="#f5f5f0" stroke="#16a34a" stroke-width="1.5" />
  <circle cx="20" cy="18" r="2.5" fill="#16a34a" />
  <circle cx="60" cy="62" r="5.5" fill="#f5f5f0" stroke="#16a34a" stroke-width="1.5" />
  <circle cx="60" cy="62" r="2.5" fill="#16a34a" />
  <circle cx="60" cy="18" r="5.5" fill="#f5f5f0" stroke="#16a34a" stroke-width="1.5" />
  <circle cx="60" cy="18" r="2.5" fill="#16a34a" />

  <!-- Midpoint nodes -->
  <circle cx="20" cy="40" r="3.5" fill="#f5f5f0" stroke="#92734e" stroke-width="1.25" />
  <circle cx="20" cy="40" r="1.5" fill="#92734e" />
  <circle cx="40" cy="40" r="4" fill="#f5f5f0" stroke="#16a34a" stroke-width="1.25" />
  <circle cx="40" cy="40" r="2" fill="#16a34a" />
  <circle cx="60" cy="40" r="3.5" fill="#f5f5f0" stroke="#92734e" stroke-width="1.25" />
  <circle cx="60" cy="40" r="1.5" fill="#92734e" />

  <!-- Satellite nodes -->
  <circle cx="30" cy="29" r="2.5" fill="#f5f5f0" stroke="rgba(100,116,80,0.5)" stroke-width="1" />
  <circle cx="30" cy="29" r="1" fill="#6b7a56" />
  <circle cx="50" cy="51" r="2.5" fill="#f5f5f0" stroke="rgba(100,116,80,0.5)" stroke-width="1" />
  <circle cx="50" cy="51" r="1" fill="#6b7a56" />

  <!-- Center pulse glow -->
  <circle cx="40" cy="40" r="8" fill="none" stroke="rgba(22,101,52,0.12)" stroke-width="0.75" />
</svg>
